<svg width="28" height="28" viewBox="0 0 28 28" fill="none" xmlns="http://www.w3.org/2000/svg">
<path d="M16.9338 14.9233C16.8674 14.8568 16.7886 14.8042 16.7019 14.7682C16.6152 14.7323 16.5223 14.7138 16.4284 14.7138C16.3346 14.7138 16.2416 14.7323 16.1549 14.7682C16.0682 14.8042 15.9894 14.8568 15.9231 14.9233L14.2857 16.5616L12.4384 14.7143L14.0767 13.0769C14.2108 12.9429 14.2861 12.7611 14.2861 12.5716C14.2861 12.382 14.2108 12.2003 14.0767 12.0662C13.9427 11.9322 13.761 11.8569 13.5714 11.8569C13.3819 11.8569 13.2001 11.9322 13.0661 12.0662L11.4287 13.7046L9.79124 12.0662C9.65722 11.9322 9.47544 11.8569 9.28591 11.8569C9.09637 11.8569 8.9146 11.9322 8.78057 12.0662C8.64655 12.2003 8.57126 12.382 8.57126 12.5716C8.57126 12.7611 8.64655 12.9429 8.78057 13.0769L9.34751 13.643L7.26547 15.7241C7.0001 15.9894 6.7896 16.3044 6.64598 16.6511C6.50236 16.9977 6.42844 17.3693 6.42844 17.7445C6.42844 18.1198 6.50236 18.4914 6.64598 18.838C6.7896 19.1847 7.0001 19.4997 7.26547 19.765L7.7458 20.2444L5.20932 22.78C5.14295 22.8464 5.09031 22.9252 5.0544 23.0119C5.01848 23.0986 5 23.1915 5 23.2854C5 23.3792 5.01848 23.4721 5.0544 23.5588C5.09031 23.6455 5.14295 23.7243 5.20932 23.7907C5.34334 23.9247 5.52511 24 5.71465 24C5.8085 24 5.90143 23.9815 5.98813 23.9456C6.07484 23.9097 6.15362 23.857 6.21998 23.7907L8.75557 21.2542L9.23502 21.7345C9.50032 21.9999 9.8153 22.2104 10.162 22.354C10.5086 22.4976 10.8802 22.5716 11.2555 22.5716C11.6307 22.5716 12.0023 22.4976 12.3489 22.354C12.6956 22.2104 13.0106 21.9999 13.2759 21.7345L15.357 19.6525L15.9231 20.2194C15.9894 20.2858 16.0682 20.3384 16.1549 20.3743C16.2416 20.4103 16.3346 20.4287 16.4284 20.4287C16.5223 20.4287 16.6152 20.4103 16.7019 20.3743C16.7886 20.3384 16.8674 20.2858 16.9338 20.2194C17.0001 20.1531 17.0528 20.0743 17.0887 19.9876C17.1246 19.9009 17.1431 19.8079 17.1431 19.7141C17.1431 19.6202 17.1246 19.5273 17.0887 19.4406C17.0528 19.3539 17.0001 19.2751 16.9338 19.2088L15.2954 17.5713L16.9338 15.9339C17.0002 15.8676 17.0528 15.7888 17.0888 15.7021C17.1247 15.6154 17.1432 15.5224 17.1432 15.4286C17.1432 15.3347 17.1247 15.2418 17.0888 15.1551C17.0528 15.0684 17.0002 14.9896 16.9338 14.9233ZM12.2652 20.7265C11.9974 20.9942 11.6342 21.1446 11.2555 21.1446C10.8768 21.1446 10.5136 20.9942 10.2457 20.7265L8.27613 18.7543C8.00844 18.4864 7.85807 18.1232 7.85807 17.7445C7.85807 17.3658 8.00844 17.0026 8.27613 16.7348L10.3573 14.6527L14.3473 18.6427L12.2652 20.7265ZM24.7905 4.20948C24.7242 4.14307 24.6454 4.09039 24.5587 4.05445C24.472 4.0185 24.3791 4 24.2852 4C24.1913 4 24.0984 4.0185 24.0117 4.05445C23.925 4.09039 23.8462 4.14307 23.7799 4.20948L21.2443 6.74597L20.7648 6.26563C20.2284 5.73079 19.5019 5.43045 18.7444 5.43045C17.9869 5.43045 17.2603 5.73079 16.7239 6.26563L14.6428 8.34768L14.0767 7.78074C13.9427 7.64672 13.761 7.57142 13.5714 7.57142C13.3819 7.57142 13.2001 7.64672 13.0661 7.78074C12.9321 7.91476 12.8568 8.09653 12.8568 8.28607C12.8568 8.47561 12.9321 8.65738 13.0661 8.7914L20.2086 15.9339C20.275 16.0003 20.3537 16.0529 20.4404 16.0888C20.5272 16.1247 20.6201 16.1432 20.7139 16.1432C20.8078 16.1432 20.9007 16.1247 20.9874 16.0888C21.0741 16.0529 21.1529 16.0003 21.2193 15.9339C21.2856 15.8676 21.3383 15.7888 21.3742 15.7021C21.4101 15.6154 21.4286 15.5224 21.4286 15.4286C21.4286 15.3347 21.4101 15.2418 21.3742 15.1551C21.3383 15.0684 21.2856 14.9896 21.2193 14.9233L20.6523 14.3572L22.7344 12.2761C22.9997 12.0108 23.2102 11.6958 23.3539 11.3491C23.4975 11.0024 23.5714 10.6309 23.5714 10.2556C23.5714 9.88038 23.4975 9.50881 23.3539 9.16214C23.2102 8.81547 22.9997 8.50049 22.7344 8.23518L22.254 7.75574L24.7905 5.22015C24.8569 5.15381 24.9096 5.07504 24.9456 4.98833C24.9815 4.90162 25 4.80868 25 4.71481C25 4.62095 24.9815 4.52801 24.9456 4.4413C24.9096 4.35459 24.8569 4.27582 24.7905 4.20948ZM21.7237 11.2627L19.6426 13.3474L15.6526 9.35745L17.7346 7.2763C18.0025 7.0086 18.3657 6.85823 18.7444 6.85823C19.1231 6.85823 19.4863 7.0086 19.7542 7.2763L21.7237 9.24049C21.8571 9.37322 21.9629 9.53099 22.0351 9.70474C22.1073 9.87849 22.1445 10.0648 22.1445 10.2529C22.1445 10.4411 22.1073 10.6274 22.0351 10.8011C21.9629 10.9749 21.8571 11.1327 21.7237 11.2654V11.2627Z" fill="currentColor"/>
</svg>
