<svg class="copy-icon" width="16" height="16" viewBox="0 0 16 16" fill="none" xmlns="http://www.w3.org/2000/svg">
<g clip-path="url(#clip0_copy)">
<path d="M13.9997 7.3335C13.9997 6.96531 13.7012 6.66683 13.333 6.66683H7.33301C6.96482 6.66683 6.66634 6.96531 6.66634 7.3335V13.3335C6.66634 13.7017 6.96482 14.0002 7.33301 14.0002H13.333C13.7012 14.0002 13.9997 13.7017 13.9997 13.3335V7.3335ZM15.333 13.3335C15.333 14.4381 14.4376 15.3335 13.333 15.3335H7.33301C6.22844 15.3335 5.33301 14.4381 5.33301 13.3335V7.3335C5.33301 6.22893 6.22844 5.3335 7.33301 5.3335H13.333C14.4376 5.3335 15.333 6.22893 15.333 7.3335V13.3335Z" fill="currentColor"/>
<path d="M9.33366 3.33317V2.6665C9.33366 2.48969 9.26337 2.32017 9.13835 2.19515C9.01332 2.07013 8.8438 1.99984 8.66699 1.99984H2.66699C2.49018 1.99984 2.32066 2.07013 2.19564 2.19515C2.07061 2.32017 2.00033 2.48969 2.00033 2.6665V8.6665C2.00033 8.84332 2.07061 9.01283 2.19564 9.13786C2.32066 9.26288 2.49018 9.33317 2.66699 9.33317H3.33366C3.70185 9.33317 4.00033 9.63165 4.00033 9.99984C4.00033 10.368 3.70185 10.6665 3.33366 10.6665H2.66699C2.13656 10.6665 1.628 10.4556 1.25293 10.0806C0.877857 9.70549 0.666992 9.19694 0.666992 8.6665V2.6665C0.666992 2.13607 0.877857 1.62751 1.25293 1.25244C1.628 0.877369 2.13656 0.666504 2.66699 0.666504H8.66699C9.19743 0.666504 9.70598 0.877369 10.0811 1.25244C10.4561 1.62751 10.667 2.13607 10.667 2.6665V3.33317C10.667 3.70136 10.3685 3.99984 10.0003 3.99984C9.63214 3.99984 9.33366 3.70136 9.33366 3.33317Z" fill="currentColor"/>
</g>
<defs><clipPath id="clip0_copy"><rect width="16" height="16" fill="white"/></clipPath></defs>
</svg>
