<svg width="40" height="40" viewBox="0 0 40 40" fill="none" xmlns="http://www.w3.org/2000/svg">
<path d="M33.333 33.3333C34.2171 33.3333 35.0649 32.9821 35.69 32.357C36.3152 31.7319 36.6663 30.8841 36.6663 30V13.3333C36.6663 12.4493 36.3152 11.6014 35.69 10.9763C35.0649 10.3512 34.2171 10 33.333 10H20.1663C19.6089 10.0055 19.0589 9.87102 18.5668 9.60897C18.0748 9.34691 17.6563 8.96563 17.3497 8.5L15.9997 6.5C15.6962 6.03912 15.283 5.6608 14.7972 5.39899C14.3114 5.13719 13.7682 5.00009 13.2163 5H6.66634C5.78229 5 4.93444 5.35119 4.30932 5.97631C3.6842 6.60143 3.33301 7.44928 3.33301 8.33333V30C3.33301 30.8841 3.6842 31.7319 4.30932 32.357C4.93444 32.9821 5.78229 33.3333 6.66634 33.3333H33.333Z" stroke="currentColor" stroke-width="4" stroke-linecap="round" stroke-linejoin="round"/>
</svg>
