<svg width="16" height="16" viewBox="0 0 16 16" fill="none" xmlns="http://www.w3.org/2000/svg">
<path d="M8.70233 2.18782L12.6317 4.45649C12.8451 4.57977 13.0223 4.75704 13.1455 4.97048C13.2687 5.18392 13.3336 5.42603 13.3337 5.67249V10.2092C13.3337 10.7112 13.0657 11.1745 12.6317 11.4258L8.70233 13.6938C8.48887 13.817 8.24677 13.8818 8.00033 13.8818C7.75389 13.8818 7.51178 13.817 7.29833 13.6938L3.36899 11.4265C3.15539 11.3031 2.97806 11.1256 2.85482 10.9119C2.73159 10.6982 2.66681 10.4558 2.66699 10.2092V5.67315C2.66699 5.17182 2.93499 4.70782 3.36899 4.45715L7.29833 2.18849C7.51178 2.06532 7.75389 2.00049 8.00033 2.00049C8.24677 2.00049 8.48887 2.06532 8.70233 2.18849V2.18782ZM7.76699 2.99982L4.26033 5.02249L5.71566 5.84182L5.18366 6.78715L3.60299 5.89782V10.2092C3.60299 10.3765 3.69233 10.5312 3.83766 10.6145L7.48299 12.7192V10.5165H8.56766L8.56699 12.6905L12.163 10.6145C12.2343 10.5735 12.2935 10.5144 12.3347 10.4433C12.3759 10.3721 12.3976 10.2914 12.3977 10.2092L12.397 5.92582L10.867 6.78715L10.335 5.84182L11.7643 5.03715L8.23433 2.99915C8.16318 2.95808 8.08248 2.93645 8.00033 2.93645C7.91818 2.93645 7.83747 2.95808 7.76633 2.99915L7.76699 2.99982ZM8.83366 6.99982V7.66649H8.50033C8.32353 7.66651 8.15399 7.73676 8.02899 7.86178C7.90399 7.98681 7.83376 8.15636 7.83376 8.33315C7.83376 8.50995 7.90399 8.6795 8.02899 8.80452C8.15399 8.92954 8.32353 8.99979 8.50033 8.99982H8.83366V9.66649H8.50033C8.1467 9.66649 7.80757 9.52601 7.55752 9.27596C7.30747 9.02591 7.16699 8.68677 7.16699 8.33315C7.16699 7.97953 7.30747 7.64039 7.55752 7.39034C7.80757 7.1403 8.1467 6.99982 8.50033 6.99982H8.83366ZM10.8337 6.99982C11.0989 6.99982 11.3532 7.10518 11.5408 7.29271C11.7283 7.48025 11.8337 7.7346 11.8337 7.99982C11.8337 8.26504 11.7283 8.51939 11.5408 8.70693C11.3532 8.89446 11.0989 8.99982 10.8337 8.99982H10.167V9.66649H9.50033V7.49982C9.50033 7.36721 9.553 7.24003 9.64677 7.14627C9.74054 7.0525 9.86772 6.99982 10.0003 6.99982H10.8337ZM6.83366 7.33315V9.66649H6.16699V8.53582L5.78633 9.17115C5.75939 9.21616 5.72222 9.25417 5.67783 9.28211C5.63344 9.31004 5.58308 9.3271 5.53085 9.33191C5.47862 9.33672 5.426 9.32913 5.37725 9.30977C5.32851 9.29041 5.28502 9.25982 5.25033 9.22049L5.21433 9.17115L4.83366 8.53649V9.66649H4.16699V7.33315C4.16699 6.99515 4.61233 6.87182 4.78633 7.16182L5.50033 8.35182L6.21433 7.16182C6.38833 6.87182 6.83366 6.99515 6.83366 7.33315ZM10.8337 7.66649H10.167V8.33315H10.8337C10.9221 8.33315 11.0069 8.29803 11.0694 8.23552C11.1319 8.17301 11.167 8.08822 11.167 7.99982C11.167 7.91141 11.1319 7.82663 11.0694 7.76412C11.0069 7.70161 10.9221 7.66649 10.8337 7.66649Z" fill="white"/>
</svg>
