<svg width="28" height="28" viewBox="0 0 28 28" fill="none" xmlns="http://www.w3.org/2000/svg">
<path d="M24.5667 4.43899C24.378 4.25049 24.1425 4.11569 23.8844 4.04846C23.6263 3.98122 23.3549 3.984 23.0982 4.0565H23.0841L5.0849 9.51643C4.79269 9.60062 4.53297 9.77159 4.34016 10.0067C4.14734 10.2418 4.03053 10.5299 4.00521 10.8328C3.97989 11.1358 4.04725 11.4393 4.19837 11.7031C4.34948 11.967 4.57722 12.1786 4.8514 12.3101L12.8148 16.1876L16.6877 24.1441C16.8082 24.401 16.9997 24.6182 17.2396 24.7699C17.4796 24.9215 17.7579 25.0014 18.0418 25C18.085 25 18.1281 24.9981 18.1712 24.9944C18.474 24.9698 18.7621 24.8533 18.9968 24.6605C19.2314 24.4676 19.4015 24.2076 19.4841 23.9153L24.9418 5.92116C24.9418 5.91648 24.9418 5.91179 24.9418 5.9071C25.0153 5.65113 25.0192 5.38023 24.9533 5.12222C24.8874 4.8642 24.754 4.62839 24.5667 4.43899ZM18.0503 23.4859L18.0456 23.4991V23.4925L14.2889 15.777L18.7902 11.277C18.9249 11.1352 18.9989 10.9464 18.9964 10.7509C18.9939 10.5553 18.9151 10.3684 18.7768 10.2301C18.6384 10.0918 18.4515 10.013 18.2559 10.0105C18.0603 10.008 17.8714 10.082 17.7296 10.2167L13.2283 14.7167L5.50783 10.9611H5.50127H5.51439L23.5052 5.50023L18.0503 23.4859Z" fill="currentColor"/>
</svg>
